<svg xmlns="http://www.w3.org/2000/svg" width="63.182" height="73.401" viewBox="0 0 63.182 73.401">
  <path style="fill:#dadee0;" d="M137.437,61.895a5.591,5.591,0,0,0-5.575-5.575H90.05a5.591,5.591,0,0,0-5.575,5.575v52.031A5.591,5.591,0,0,0,90.05,119.5h31.588l15.8-14.866Z" transform="translate(-74.255 -46.1)"/>
  <path style="fill:#622c8b;" d="M38.375,15.8A5.591,5.591,0,0,1,43.95,10.22H81.117V5.575A5.591,5.591,0,0,0,75.542,0H33.73a5.591,5.591,0,0,0-5.575,5.575V57.606a5.591,5.591,0,0,0,5.575,5.575h4.646Z" transform="translate(-28.155)"/>
  <path style="fill:#f2f2f2;" d="M294.84,322.56h10.22l-15.8,14.866v-9.291A5.591,5.591,0,0,1,294.84,322.56Z" transform="translate(-241.881 -264.025)"/><g transform="translate(22.764 22.764)">
  <path style="fill:#434345;" d="M154.989,179.427h25.086a1.394,1.394,0,1,0,0-2.787H154.989a1.394,1.394,0,0,0,0,2.787" transform="translate(-153.595 -167.349)"/><path class="d" d="M154.989,128.227h25.086a1.394,1.394,0,1,0,0-2.787H154.989a1.394,1.394,0,0,0,0,2.787" transform="translate(-153.595 -125.44)"/><path class="d" d="M154.989,230.627h25.086a1.394,1.394,0,1,0,0-2.787H154.989a1.394,1.394,0,0,0,0,2.787" transform="translate(-153.595 -209.257)"/><path class="d" d="M154.989,281.827h13.937a1.394,1.394,0,1,0,0-2.787H154.989a1.394,1.394,0,1,0,0,2.787" transform="translate(-153.595 -251.166)"/></g>
</svg>